<svg width="42" height="42" viewBox="0 0 42 42" fill="none" xmlns="http://www.w3.org/2000/svg">
<path fill-rule="evenodd" clip-rule="evenodd" d="M39.5062 35.0134C39.5062 35.0134 8.35548 35.0007 8.3494 35.0008C7.73635 34.9927 7.40527 35.0395 6.58931 35.4054L1.54564 37.6655C1.2076 37.8157 0.997728 38.1374 0.998047 38.505C0.998368 38.8687 1.21368 39.1989 1.54324 39.3446C3.1974 40.0881 6.58907 41.6079 6.58907 41.6079C7.3527 41.9503 7.6837 41.9887 8.22626 41.9887L20.4363 42C20.7677 42 21.0364 41.7302 21.0364 41.3974C21.0364 41.0647 20.7677 40.7949 20.4363 40.7949C20.4363 40.7949 9.01693 40.7952 8.96748 40.7956V39.1092H35.482V40.7949H23.416C23.0845 40.7949 22.8159 41.0647 22.8159 41.3974C22.8159 41.7302 23.0845 42 23.416 42H39.5063C40.8599 42 41.9611 40.8961 41.9611 39.5393V37.4741C41.9611 36.1173 40.8598 35.0134 39.5062 35.0134ZM4.48014 37.6702V39.3424L3.90229 39.0833C3.47341 38.8911 3.04455 38.6988 2.61507 38.506L4.48014 37.6702ZM5.6803 37.1324V39.8806C6.11836 40.0769 7.58873 40.7243 7.76732 40.7655V36.248C7.58873 36.2893 5.6803 37.1324 5.6803 37.1324ZM8.96756 37.9042V36.2178C9.01701 36.2182 9.0679 36.2185 9.12191 36.2185H35.4821V37.9042H8.96756ZM39.5062 40.7949C40.1981 40.7949 40.7609 40.2317 40.7609 39.5393V37.474C40.7609 36.7817 40.198 36.2185 39.5062 36.2185H36.6822V40.7949H39.5062Z" fill="black"/>
<path fill-rule="evenodd" clip-rule="evenodd" d="M2.05968 32L20.9214 31.9977C21.2626 31.9977 21.5392 31.7241 21.5391 31.3867C21.539 31.0493 21.2624 30.7758 20.9213 30.7759L2.23355 30.7781V5.84759H4.70334V26.2707C4.70334 26.8252 5.15981 27.2762 5.72098 27.2762H31.3369C31.7603 27.2762 32.1283 27.0502 32.2747 26.7004C32.4206 26.3515 32.3239 25.9619 32.0161 25.6581L11.9413 5.84759H34.6626V25.2193C34.6626 25.7901 35.1326 26.2544 35.7103 26.2544H38.4333C39.6974 26.2544 40.7257 27.2686 40.7257 28.5151C40.7257 29.7617 39.6974 30.7758 38.4333 30.7758H23.7575C23.4163 30.7758 23.1397 31.0493 23.1397 31.3867C23.1397 31.7241 23.4163 31.9976 23.7575 31.9976H38.4332C40.3785 31.9976 41.9611 30.4354 41.9611 28.5151V5.61079C41.9611 3.68923 40.3785 2.12599 38.4332 2.12599H35.7102C35.1325 2.12599 34.6625 2.58932 34.6625 3.15886V4.62582H10.703L6.33997 0.320096C6.03126 0.0154475 5.63565 -0.0787979 5.28155 0.0678242C4.92737 0.214609 4.70037 0.579047 4.70334 0.992032V4.62574H2.0596C1.47429 4.62574 0.998047 5.09729 0.998047 5.67693V30.9489C0.998047 31.5284 1.47429 32 2.05968 32ZM35.8981 3.34776H38.4332C39.6973 3.34776 40.7256 4.36287 40.7256 5.61071V25.87C40.1086 25.3481 39.3075 25.0325 38.4332 25.0325H35.8981V3.34776ZM30.6681 26.0545L5.93884 1.65045V26.0545H8.58901V25.1965C8.58901 24.8591 8.8656 24.5856 9.20676 24.5856C9.54793 24.5856 9.82452 24.8591 9.82452 25.1965V26.0545H12.4768V24.3891C12.4768 24.0517 12.7534 23.7782 13.0946 23.7782C13.4357 23.7782 13.7123 24.0517 13.7123 24.3891V26.0545H16.3624V25.1965C16.3624 24.8591 16.639 24.5856 16.9802 24.5856C17.3213 24.5856 17.5979 24.8591 17.5979 25.1965V26.0545H20.2504V24.3891C20.2504 24.0517 20.527 23.7782 20.8681 23.7782C21.2093 23.7782 21.4859 24.0517 21.4859 24.3891V26.0545H24.136V25.1965C24.136 24.8591 24.4125 24.5856 24.7537 24.5856C25.095 24.5856 25.3715 24.8591 25.3715 25.1965V26.0545H30.6681Z" fill="black"/>
<path fill-rule="evenodd" clip-rule="evenodd" d="M17.6708 22H11.4774C11.0361 22 10.7511 21.7074 10.751 21.2544V14.9056C10.751 14.666 10.751 14.2202 11.1535 14.0496C11.5495 13.8818 11.8348 14.1763 12.0431 14.3914L18.1743 20.6744C18.3829 20.8881 18.6686 21.1808 18.505 21.587C18.3386 22 17.9041 22 17.6708 22ZM16.7647 20.8518L11.8691 15.8349V20.8518H16.7647Z" fill="black"/>
</svg>
