<svg width="39" height="26" viewBox="0 0 39 26" fill="none" xmlns="http://www.w3.org/2000/svg">
<path fill-rule="evenodd" clip-rule="evenodd" d="M24.3731 19.1298H37.8748C38.3245 19.1298 38.6904 19.5272 38.6904 20.0156V22.1081V22.8288V25.3956C38.6904 25.7295 38.4415 26 38.1343 26C37.8271 26 37.5781 25.7295 37.5781 25.3956V23.4332H31.6071C31.2999 23.4332 31.051 23.1627 31.051 22.8288C31.051 22.495 31.2999 22.2245 31.6071 22.2245H37.5781V22.1081V20.3386H24.3731V22.2245H29.3428C29.65 22.2245 29.899 22.495 29.899 22.8288C29.899 23.1627 29.65 23.4332 29.3428 23.4332H24.3731V24.54C24.3731 25.1489 23.9159 25.6442 23.3539 25.6442H12.5489C6.02899 25.6442 0.724609 19.8922 0.724609 12.8221C0.724609 5.75196 6.02899 -3.05176e-05 12.5489 -3.05176e-05C17.7571 -3.05176e-05 22.1893 3.67049 23.7619 8.75125H25.7725C26.2564 8.75125 26.6499 9.13578 26.7517 9.70822L27.513 14.0052C27.5778 14.367 27.5114 14.7019 27.3255 14.9471C27.1471 15.1824 26.875 15.3119 26.5595 15.3119H24.3731V19.1298ZM26.3977 14.1032L25.6636 9.95987H24.0759C24.2702 10.8805 24.3731 11.8385 24.3731 12.8221V14.1032H26.3977ZM1.85127 13.4264H3.8774L3.95022 13.4269C3.96394 13.4271 3.97832 13.4272 3.9933 13.4272C4.14339 13.4272 4.34879 13.4122 4.51882 13.2245C4.70331 13.0209 4.69782 12.7793 4.69478 12.6495C4.69381 12.6075 4.69285 12.5641 4.69478 12.5069C4.74913 10.8882 5.22385 9.33022 6.0677 8.00144C6.24218 7.72675 6.17863 7.35035 5.92585 7.16075C5.67314 6.97114 5.32663 7.0402 5.15222 7.3149C4.23051 8.76639 3.6941 10.4569 3.59429 12.2177H1.85127C2.13275 6.29354 6.52819 1.52858 11.9927 1.22415V3.11352C10.2411 3.22915 8.57826 3.89096 7.17034 5.03536C6.92438 5.2352 6.8741 5.61401 7.05808 5.88129C7.1673 6.04004 7.33451 6.12368 7.50388 6.12368C7.61978 6.12368 7.73664 6.08452 7.83652 6.00329C9.12187 4.95857 10.6501 4.37299 12.2565 4.30973C12.3093 4.30762 12.351 4.30863 12.384 4.30942L12.3869 4.30949L12.3895 4.30954C12.5107 4.3119 12.7327 4.31623 12.9187 4.11666C13.1085 3.91322 13.1067 3.67144 13.1053 3.49481V3.49474L13.105 1.22415C18.7541 1.53898 23.2608 6.62062 23.2608 12.822V19.7341V21.3362H12.9755C12.4336 21.3362 11.9927 21.8149 11.9927 22.4032V24.4199C6.52826 24.1155 2.13283 19.3506 1.85127 13.4264ZM13.105 24.4355H23.2609V22.8287V22.545H13.105V24.4355Z" fill="black"/>
<path fill-rule="evenodd" clip-rule="evenodd" d="M17.9077 19.9333H12.59C9.10031 19.9333 6.26123 17.0169 6.26123 13.4322C6.26123 9.84869 9.10031 6.9333 12.59 6.9333C16.0785 6.9333 18.9165 9.84877 18.9165 13.4322V18.8937C18.9165 19.4669 18.4639 19.9333 17.9077 19.9333ZM17.792 13.4322C17.792 10.4869 15.4583 8.09079 12.59 8.09079C9.72036 8.09079 7.38574 10.4869 7.38574 13.4322C7.38574 16.3787 9.72036 18.7758 12.59 18.7758H17.792V13.4322Z" fill="black"/>
<path fill-rule="evenodd" clip-rule="evenodd" d="M14.6108 15.6H10.5674C9.93768 15.6 9.42529 15.1112 9.42529 14.5103V12.354C9.42529 11.7544 9.93768 11.2666 10.5674 11.2666H14.6108C15.2405 11.2666 15.7529 11.7544 15.7529 12.354V14.5103C15.7529 15.1111 15.2405 15.6 14.6108 15.6ZM14.4826 12.4773H10.6957V14.3894H14.4826V12.4773Z" fill="black"/>
</svg>
