<svg width="38" height="34" viewBox="0 0 38 34" fill="none" xmlns="http://www.w3.org/2000/svg">
<path fill-rule="evenodd" clip-rule="evenodd" d="M35.7094 9.63027H36.2974C37.2174 9.63027 37.9658 10.4676 37.9658 11.4969V23.0395C37.9658 24.755 36.7184 26.1506 35.1851 26.1506H33.4531V32.2521C33.4531 33.2158 32.7522 34 31.8907 34C31.0747 34 30.3901 33.2866 30.3323 32.3759L29.9367 26.1505H13.7929C13.4857 26.1505 13.2367 25.8719 13.2367 25.5283C13.2367 25.1847 13.4857 24.9061 13.7929 24.9061H35.185C36.105 24.9061 36.8535 24.0687 36.8535 23.0394V11.4968C36.8535 11.1537 36.604 10.8746 36.2973 10.8746H34.0092C33.7409 10.8746 33.5164 11.0882 33.4644 11.3716C33.457 11.412 33.4531 11.4539 33.4531 11.4968V14.4762H34.3487C35.0961 14.4762 35.7042 15.1565 35.7042 15.9927V19.5853C35.7042 20.4215 35.0961 21.1018 34.3487 21.1018H3.61706C2.86968 21.1018 2.26163 20.4216 2.26163 19.5854V15.9928C2.26163 15.1566 2.86968 14.4763 3.61706 14.4763H4.51267V11.4969C4.51267 11.454 4.50874 11.4121 4.50132 11.3716C4.44941 11.0884 4.22481 10.8747 3.95653 10.8747H1.66842C1.36173 10.8747 1.11228 11.1538 1.11228 11.4969V23.0394C1.11228 24.0687 1.8607 24.9061 2.7807 24.9061H11.1976C11.5047 24.9061 11.7538 25.1847 11.7538 25.5283C11.7538 25.8719 11.5047 26.1505 11.1976 26.1505H8.02895L7.63335 32.3759C7.57551 33.2866 6.89094 34 6.07497 34C5.21355 34 4.51267 33.2159 4.51267 32.2521V26.1506H2.7807C1.24738 26.1506 0 24.755 0 23.0395V11.4969C0 10.4676 0.748416 9.63027 1.66842 9.63027H2.25637V2.86218C2.25637 1.284 3.40402 0 4.81461 0H16.9808C17.791 0 18.5138 0.424017 18.9829 1.08356C19.452 0.424017 20.1748 0 20.985 0H33.1511C34.4001 0 35.4603 0.998028 35.6721 2.37328C35.7243 2.71193 35.5212 3.03374 35.2185 3.09215C34.9158 3.15038 34.6282 2.92332 34.576 2.58467C34.4564 1.80798 33.8572 1.24442 33.1512 1.24442H20.9849C20.1876 1.24442 19.539 1.97017 19.539 2.86218V14.5007C19.5464 14.4992 19.5524 14.4978 19.5582 14.4964L19.5641 14.4951C19.659 14.4733 19.7589 14.4734 24.7032 14.4749H24.7035H24.7038H24.7042H24.7048H24.7055H24.7065C26.5202 14.4755 28.9855 14.4763 32.3408 14.4763V11.4969C32.3408 10.4676 33.0892 9.63027 34.0092 9.63027H34.5971V5.38064C34.5971 5.03702 34.8462 4.75843 35.1533 4.75843C35.4604 4.75843 35.7094 5.03702 35.7094 5.38064V9.63027ZM6.66884 32.2862L7.0034 26.122H5.8976V32.2504C5.8976 32.5292 6.07077 32.7561 6.28369 32.7561C6.48536 32.7561 6.65452 32.5497 6.66884 32.2862ZM34.6484 19.6298C34.6484 19.7802 34.5389 19.9024 34.4043 19.9024H19.5358V18.2513V16.0287C19.5358 15.8783 19.6453 15.7561 19.7799 15.7561H34.4043C34.5389 15.7561 34.6484 15.8784 34.6484 16.0287V19.6298ZM3.3174 9.63735H3.90748C4.8308 9.63735 5.58192 10.4754 5.58192 11.5057V14.4878C8.9604 14.4878 11.4411 14.487 13.2647 14.4865H13.2688H13.2688C18.2393 14.485 18.324 14.4849 18.4032 14.5057L18.4074 14.5068C18.4137 14.5085 18.4204 14.5103 18.43 14.5122V2.86312C18.43 1.97031 17.779 1.2439 16.9788 1.2439H4.76859C3.96843 1.2439 3.3174 1.97031 3.3174 2.86312V9.63735ZM3.3174 19.6299V16.0288C3.3174 15.8784 3.42691 15.7561 3.56151 15.7561H18.1859C18.3205 15.7561 18.43 15.8784 18.43 16.0288V18.2514V19.9024H3.56151C3.42691 19.9024 3.3174 19.7802 3.3174 19.6299ZM31.6821 32.7561C31.895 32.7561 32.0682 32.5293 32.0682 32.2504V26.122H30.9624L31.2969 32.2862C31.3113 32.5497 31.4804 32.7561 31.6821 32.7561Z" fill="black"/>
</svg>
