<svg width="39" height="34" viewBox="0 0 39 34" fill="none" xmlns="http://www.w3.org/2000/svg">
<path fill-rule="evenodd" clip-rule="evenodd" d="M36.1831 9.63027H36.771C37.691 9.63027 38.4394 10.4676 38.4394 11.4969V23.0395C38.4394 24.755 37.1921 26.1506 35.6587 26.1506H33.9267V32.2521C33.9267 33.2158 33.2258 34 32.3643 34C31.5483 34 30.8638 33.2866 30.8059 32.3759L30.4103 26.1505H14.2665C13.9594 26.1505 13.7104 25.8719 13.7104 25.5283C13.7104 25.1847 13.9594 24.9061 14.2665 24.9061H35.6587C36.5787 24.9061 37.3271 24.0687 37.3271 23.0394V11.4968C37.3271 11.1537 37.0776 10.8746 36.7709 10.8746H34.4828C34.2146 10.8746 33.99 11.0882 33.938 11.3716C33.9306 11.412 33.9267 11.4539 33.9267 11.4968V14.4762H34.8224C35.5698 14.4762 36.1778 15.1565 36.1778 15.9927V19.5853C36.1778 20.4215 35.5698 21.1018 34.8224 21.1018H4.09069C3.34331 21.1018 2.73527 20.4216 2.73527 19.5854V15.9928C2.73527 15.1566 3.34331 14.4763 4.09069 14.4763H4.9863V11.4969C4.9863 11.454 4.98237 11.4121 4.97495 11.3716C4.92305 11.0884 4.69844 10.8747 4.43016 10.8747H2.14205C1.83536 10.8747 1.58591 11.1538 1.58591 11.4969V23.0394C1.58591 24.0687 2.33433 24.9061 3.25433 24.9061H11.6712C11.9784 24.9061 12.2274 25.1847 12.2274 25.5283C12.2274 25.8719 11.9784 26.1505 11.6712 26.1505H8.50258L8.10698 32.3759C8.04914 33.2866 7.36457 34 6.54861 34C5.68718 34 4.9863 33.2159 4.9863 32.2521V26.1506H3.25433C1.72102 26.1506 0.473633 24.755 0.473633 23.0395V11.4969C0.473633 10.4676 1.22205 9.63027 2.14205 9.63027H2.73V2.86218C2.73 1.284 3.87765 0 5.28825 0H17.4544C18.2646 0 18.9874 0.424017 19.4565 1.08356C19.9256 0.424017 20.6485 0 21.4586 0H33.6247C34.8737 0 35.9339 0.998028 36.1458 2.37328C36.198 2.71193 35.9949 3.03374 35.6922 3.09215C35.3894 3.15038 35.1019 2.92332 35.0496 2.58467C34.93 1.80798 34.3308 1.24442 33.6248 1.24442H21.4586C20.6613 1.24442 20.0126 1.97017 20.0126 2.86218V14.5007C20.02 14.4992 20.0261 14.4978 20.0318 14.4964L20.0377 14.4951C20.1326 14.4733 20.2325 14.4734 25.1768 14.4749H25.1772H25.1775H25.1778H25.1784H25.1792H25.1801C26.9939 14.4755 29.4591 14.4763 32.8144 14.4763V11.4969C32.8144 10.4676 33.5628 9.63027 34.4828 9.63027H35.0708V5.38064C35.0708 5.03702 35.3198 4.75843 35.6269 4.75843C35.9341 4.75843 36.1831 5.03702 36.1831 5.38064V9.63027ZM7.14247 32.2862L7.47703 26.122H6.37123V32.2504C6.37123 32.5292 6.5444 32.7561 6.75733 32.7561C6.95899 32.7561 7.12815 32.5497 7.14247 32.2862ZM35.122 19.6298C35.122 19.7802 35.0125 19.9024 34.8779 19.9024H20.0094V18.2513V16.0287C20.0094 15.8783 20.1189 15.7561 20.2535 15.7561H34.8779C35.0125 15.7561 35.122 15.8784 35.122 16.0287V19.6298ZM3.79103 9.63735H4.38111C5.30444 9.63735 6.05556 10.4754 6.05556 11.5057V14.4878C9.43404 14.4878 11.9148 14.487 13.7384 14.4865H13.7424H13.7424C18.713 14.485 18.7976 14.4849 18.8769 14.5057L18.881 14.5068C18.8873 14.5085 18.8941 14.5103 18.9036 14.5122V2.86312C18.9036 1.97031 18.2526 1.2439 17.4524 1.2439H5.24222C4.44206 1.2439 3.79103 1.97031 3.79103 2.86312V9.63735ZM3.79103 19.6299V16.0288C3.79103 15.8784 3.90054 15.7561 4.03514 15.7561H18.6595C18.7941 15.7561 18.9036 15.8784 18.9036 16.0288V18.2514V19.9024H4.03514C3.90054 19.9024 3.79103 19.7802 3.79103 19.6299ZM32.1557 32.7561C32.3686 32.7561 32.5418 32.5293 32.5418 32.2504V26.122H31.436L31.7706 32.2862C31.7849 32.5497 31.954 32.7561 32.1557 32.7561Z" fill="black"/>
</svg>
